<svg width="23" height="21" viewBox="0 0 23 21" fill="none" xmlns="http://www.w3.org/2000/svg">
<path d="M11.2553 19.8557L11.5 20.095L11.7447 19.8557L20.6143 11.182L20.6145 11.1818C21.167 10.6409 21.5932 10.0134 21.8916 9.30146C22.197 8.58894 22.35 7.84306 22.35 7.06671C22.35 6.27067 22.1938 5.51673 21.8799 4.80849C21.5753 4.09922 21.1532 3.48217 20.6136 2.96079C20.0756 2.43423 19.4476 2.01908 18.7327 1.71506C18.0104 1.40793 17.239 1.25547 16.4219 1.25547C15.829 1.25547 15.2898 1.32183 14.808 1.45972C14.3361 1.59476 13.8949 1.78368 13.4855 2.02696C13.0879 2.26061 12.7068 2.54253 12.3422 2.87154L12.3422 2.87153L12.3396 2.87387C12.0698 3.12221 11.7898 3.38874 11.4998 3.67338C11.2082 3.38839 10.9245 3.12146 10.6488 2.87268C10.2903 2.54293 9.90882 2.26068 9.50425 2.02695C9.10126 1.78344 8.66339 1.59462 8.192 1.45972C7.71019 1.32183 7.17098 1.25547 6.57812 1.25547C5.76101 1.25547 4.98957 1.40793 4.26733 1.71506C3.55239 2.01908 2.9244 2.43424 2.38636 2.9608C1.84688 3.48206 1.42156 4.09883 1.11021 4.80772L1.11021 4.80772L1.10952 4.80931C0.802649 5.51749 0.65 6.27112 0.65 7.06671C0.65 7.84237 0.799272 8.58774 1.09758 9.30006L1.09756 9.30007L1.09876 9.30285C1.40387 10.0141 1.83325 10.6411 2.38552 11.1818L2.38566 11.182L11.2553 19.8557ZM20.0276 5.57866L20.0283 5.58021C20.2266 6.0353 20.3272 6.52946 20.3272 7.06671C20.3272 7.57638 20.2303 8.06267 20.0363 8.52831C19.8429 8.99253 19.5623 9.40526 19.1917 9.76809L11.5 17.2986L3.80833 9.76809C3.43745 9.40499 3.15302 8.99164 2.95269 8.52648C2.7592 8.0614 2.6625 7.57571 2.6625 7.06671C2.6625 6.53745 2.76267 6.04318 2.96137 5.58047C3.16962 5.1115 3.44859 4.70749 3.79808 4.36532C4.15465 4.01622 4.57108 3.74292 5.05038 3.54534L5.05039 3.54536L5.05392 3.54386C5.52836 3.34217 6.0353 3.24047 6.57812 3.24047C7.09946 3.24047 7.55456 3.32752 7.94944 3.49405L7.94944 3.49406L7.9512 3.49479C8.37383 3.67033 8.75986 3.89539 9.11036 4.16991L9.11035 4.16992L9.11277 4.17179C9.48037 4.45456 9.83256 4.77345 10.1692 5.12891C10.5209 5.50027 10.8829 5.86816 11.2551 6.23258L11.5022 6.47448L11.7471 6.23037C12.1253 5.85331 12.4866 5.48275 12.8309 5.11869C13.1676 4.76322 13.5162 4.44797 13.8763 4.1723C14.2261 3.90456 14.6076 3.68975 15.0217 3.52758L15.0217 3.5276L15.0259 3.52589C15.421 3.36522 15.8841 3.28062 16.4219 3.28062C16.9736 3.28062 17.4811 3.37974 17.9481 3.57483L17.9481 3.57487L17.9532 3.57691C18.4317 3.76802 18.8433 4.03433 19.1917 4.37536L19.1916 4.3754L19.1962 4.37969C19.55 4.71393 19.8271 5.11238 20.0276 5.57866Z" fill="white" stroke="white" stroke-width="0.7"/>
</svg>
