<svg width="23" height="20" viewBox="0 0 23 20" fill="none" xmlns="http://www.w3.org/2000/svg">
<path d="M21.8916 8.69602C22.197 7.98348 22.35 7.2376 22.35 6.46124C22.35 5.66521 22.1938 4.91126 21.8799 4.20302C21.5753 3.49375 21.1532 2.8767 20.6136 2.35532C20.0756 1.82876 19.4476 1.41361 18.7327 1.10959C18.0104 0.802464 17.239 0.65 16.4219 0.65C15.829 0.65 15.2898 0.716364 14.808 0.85425C14.3361 0.989291 13.8949 1.17821 13.4855 1.42149C13.0879 1.65514 12.7068 1.93706 12.3422 2.26607L12.3422 2.26606L12.3396 2.2684C12.0698 2.51675 11.7898 2.78327 11.4998 3.06791C11.2082 2.78292 10.9245 2.516 10.6488 2.26721C10.2903 1.93746 9.90882 1.65521 9.50425 1.42148C9.10126 1.17797 8.66339 0.989154 8.192 0.85425C7.71019 0.716364 7.17098 0.65 6.57812 0.65C5.76101 0.65 4.98957 0.802464 4.26733 1.10959C3.5524 1.41361 2.92441 1.82877 2.38637 2.35532C1.84688 2.87658 1.42156 3.49336 1.11021 4.20226L1.11021 4.20225L1.10952 4.20384C0.802649 4.91202 0.65 5.66565 0.65 6.46124C0.65 7.2369 0.799272 7.98227 1.09758 8.69459L1.09756 8.6946L1.09876 8.69738C1.40387 9.40861 1.83325 10.0357 2.38552 10.5764L2.38566 10.5765L11.2553 19.2502L11.5 19.4895L11.7447 19.2502L20.6143 10.5765L20.6145 10.5764C21.167 10.0354 21.5932 9.40791 21.8916 8.69602ZM21.8916 8.69602C21.8918 8.69554 21.892 8.69507 21.8922 8.69459L21.5693 8.5594L21.891 8.69738C21.8912 8.69693 21.8914 8.69647 21.8916 8.69602ZM20.0276 4.97319L20.0283 4.97474C20.2266 5.42983 20.3272 5.92399 20.3272 6.46124C20.3272 6.97091 20.2303 7.4572 20.0363 7.92284C19.8429 8.38706 19.5623 8.79979 19.1917 9.16262L11.5 16.6931L3.80833 9.16262C3.43745 8.79951 3.15301 8.38616 2.95269 7.921C2.7592 7.45592 2.6625 6.97024 2.6625 6.46124C2.6625 5.93199 2.76267 5.43772 2.96137 4.97501C3.16962 4.50603 3.44858 4.10202 3.79808 3.75985C4.15465 3.41076 4.57108 3.13745 5.05038 2.93987L5.05039 2.93989L5.05392 2.93839C5.52836 2.7367 6.0353 2.635 6.57812 2.635C7.09946 2.635 7.55456 2.72205 7.94944 2.88858L7.94944 2.88859L7.9512 2.88932C8.37383 3.06486 8.75986 3.28992 9.11036 3.56444L9.11035 3.56445L9.11277 3.56632C9.48037 3.8491 9.83256 4.16798 10.1692 4.52344C10.5209 4.8948 10.8829 5.26269 11.2551 5.62712L11.5022 5.86901L11.7471 5.6249C12.1253 5.24791 12.4865 4.87741 12.8308 4.5134C13.1675 4.15786 13.5161 3.84255 13.8763 3.56683C14.2261 3.29909 14.6076 3.08428 15.0217 2.92211L15.0217 2.92214L15.0259 2.92042C15.421 2.75975 15.8841 2.67515 16.4219 2.67515C16.9736 2.67515 17.4811 2.77427 17.9481 2.96936L17.9481 2.9694L17.9532 2.97144C18.4317 3.16255 18.8433 3.42886 19.1917 3.76989L19.1916 3.76993L19.1962 3.77422C19.55 4.10846 19.8271 4.50691 20.0276 4.97319Z" fill="black" stroke="black" stroke-width="0.7"/>
</svg>
