<svg width="26" height="23" viewBox="0 0 26 23" fill="none" xmlns="http://www.w3.org/2000/svg">
<path d="M20.6055 1C21.3086 1.70312 21.9297 2.46484 22.4688 3.28516C23.0156 4.10547 23.4766 4.96875 23.8516 5.875C24.2266 6.77344 24.5078 7.70703 24.6953 8.67578C24.8906 9.63672 24.9883 10.6133 24.9883 11.6055C24.9883 12.5977 24.8906 13.5781 24.6953 14.5469C24.5078 15.5078 24.2266 16.4414 23.8516 17.3477C23.4766 18.2461 23.0156 19.1055 22.4688 19.9258C21.9297 20.7461 21.3086 21.5078 20.6055 22.2109L19.5508 21.1562C20.1836 20.5234 20.7422 19.8398 21.2266 19.1055C21.7188 18.3633 22.1328 17.5859 22.4688 16.7734C22.8047 15.9609 23.0586 15.1211 23.2305 14.2539C23.4102 13.3789 23.5 12.4961 23.5 11.6055C23.5 10.7148 23.4102 9.83594 23.2305 8.96875C23.0586 8.09375 22.8047 7.25 22.4688 6.4375C22.1328 5.625 21.7188 4.85156 21.2266 4.11719C20.7422 3.375 20.1836 2.6875 19.5508 2.05469L20.6055 1ZM17.4297 4.17578C17.9219 4.66797 18.3555 5.20312 18.7305 5.78125C19.1133 6.35156 19.4336 6.95312 19.6914 7.58594C19.957 8.21875 20.1562 8.875 20.2891 9.55469C20.4297 10.2344 20.5 10.918 20.5 11.6055C20.5 12.3008 20.4297 12.9883 20.2891 13.668C20.1562 14.3398 19.957 14.9922 19.6914 15.625C19.4336 16.2578 19.1133 16.8633 18.7305 17.4414C18.3555 18.0117 17.9219 18.543 17.4297 19.0352L16.3633 17.9688C17.207 17.125 17.8555 16.1523 18.3086 15.0508C18.7695 13.9492 19 12.8008 19 11.6055C19 10.4102 18.7695 9.26172 18.3086 8.16016C17.8555 7.05859 17.207 6.08594 16.3633 5.24219L17.4297 4.17578ZM14.2422 7.36328C14.8047 7.92578 15.2383 8.57422 15.543 9.30859C15.8477 10.043 16 10.8086 16 11.6055C16 12.4023 15.8477 13.168 15.543 13.9023C15.2383 14.6367 14.8047 15.2852 14.2422 15.8477L13.1875 14.793C13.6094 14.3711 13.9336 13.8867 14.1602 13.3398C14.3867 12.7852 14.5 12.207 14.5 11.6055C14.5 11.0039 14.3867 10.4297 14.1602 9.88281C13.9336 9.32812 13.6094 8.83984 13.1875 8.41797L14.2422 7.36328ZM8.93359 2.60547H10V20.6055H8.93359L4.43359 16.1055H1V7.10547H4.43359L8.93359 2.60547ZM8.5 5.17188L5.06641 8.60547H2.5V14.6055H5.06641L8.5 18.0391V5.17188Z" fill="white" stroke="white"/>
</svg>
