<svg width="26" height="24" viewBox="0 0 26 24" fill="none" xmlns="http://www.w3.org/2000/svg">
<path d="M20.6055 1.39453C21.3086 2.09766 21.9297 2.85938 22.4688 3.67969C23.0156 4.5 23.4766 5.36328 23.8516 6.26953C24.2266 7.16797 24.5078 8.10156 24.6953 9.07031C24.8906 10.0312 24.9883 11.0078 24.9883 12C24.9883 12.9922 24.8906 13.9727 24.6953 14.9414C24.5078 15.9023 24.2266 16.8359 23.8516 17.7422C23.4766 18.6406 23.0156 19.5 22.4688 20.3203C21.9297 21.1406 21.3086 21.9023 20.6055 22.6055L19.5508 21.5508C20.1836 20.918 20.7422 20.2344 21.2266 19.5C21.7188 18.7578 22.1328 17.9805 22.4688 17.168C22.8047 16.3555 23.0586 15.5156 23.2305 14.6484C23.4102 13.7734 23.5 12.8906 23.5 12C23.5 11.1094 23.4102 10.2305 23.2305 9.36328C23.0586 8.48828 22.8047 7.64453 22.4688 6.83203C22.1328 6.01953 21.7188 5.24609 21.2266 4.51172C20.7422 3.76953 20.1836 3.08203 19.5508 2.44922L20.6055 1.39453ZM17.4297 4.57031C17.9219 5.0625 18.3555 5.59766 18.7305 6.17578C19.1133 6.74609 19.4336 7.34766 19.6914 7.98047C19.957 8.61328 20.1562 9.26953 20.2891 9.94922C20.4297 10.6289 20.5 11.3125 20.5 12C20.5 12.6953 20.4297 13.3828 20.2891 14.0625C20.1562 14.7344 19.957 15.3867 19.6914 16.0195C19.4336 16.6523 19.1133 17.2578 18.7305 17.8359C18.3555 18.4062 17.9219 18.9375 17.4297 19.4297L16.3633 18.3633C17.207 17.5195 17.8555 16.5469 18.3086 15.4453C18.7695 14.3438 19 13.1953 19 12C19 10.8047 18.7695 9.65625 18.3086 8.55469C17.8555 7.45312 17.207 6.48047 16.3633 5.63672L17.4297 4.57031ZM14.2422 7.75781C14.8047 8.32031 15.2383 8.96875 15.543 9.70312C15.8477 10.4375 16 11.2031 16 12C16 12.7969 15.8477 13.5625 15.543 14.2969C15.2383 15.0312 14.8047 15.6797 14.2422 16.2422L13.1875 15.1875C13.6094 14.7656 13.9336 14.2812 14.1602 13.7344C14.3867 13.1797 14.5 12.6016 14.5 12C14.5 11.3984 14.3867 10.8242 14.1602 10.2773C13.9336 9.72266 13.6094 9.23438 13.1875 8.8125L14.2422 7.75781ZM8.93359 3H10V21H8.93359L4.43359 16.5H1V7.5H4.43359L8.93359 3ZM8.5 5.56641L5.06641 9H2.5V15H5.06641L8.5 18.4336V5.56641Z" fill="black" stroke="black"/>
</svg>
